<svg width="20" height="20" viewBox="0 0 20 20" fill="none" xmlns="http://www.w3.org/2000/svg">
<path d="M10 13C11.6569 13 13 11.6569 13 10C13 8.34315 11.6569 7 10 7C8.34315 7 7 8.34315 7 10C7 11.6569 8.34315 13 10 13Z" fill="#8B939E"/>
<path d="M11 2.069V0H9V2.069C7.24017 2.29335 5.60466 3.09574 4.3502 4.3502C3.09574 5.60466 2.29335 7.24017 2.069 9H0V11H2.069C2.29319 12.7599 3.09552 14.3955 4.35001 15.65C5.6045 16.9045 7.2401 17.7068 9 17.931V20H11V17.931C12.7599 17.7068 14.3955 16.9045 15.65 15.65C16.9045 14.3955 17.7068 12.7599 17.931 11H20V9H17.931C17.7066 7.24017 16.9043 5.60466 15.6498 4.3502C14.3953 3.09574 12.7598 2.29335 11 2.069ZM10 16C6.691 16 4 13.309 4 10C4 6.691 6.691 4 10 4C13.309 4 16 6.691 16 10C16 13.309 13.309 16 10 16Z" fill="#8B939E"/>
</svg>
