<svg width="14" height="16" viewBox="0 0 14 16" fill="none" xmlns="http://www.w3.org/2000/svg">
<path d="M6.50762 0.0144438C9.42275 -0.179395 12.2805 1.59329 13.4103 4.39769C14.2742 6.39235 13.9117 8.62775 13.9842 10.7475C13.9178 10.9726 13.7577 11.1133 13.5825 11.2508C12.6732 11.9605 11.7669 12.6765 10.8577 13.3862C10.7791 13.4456 10.7549 13.5081 10.7549 13.6081C10.761 14.0552 10.758 14.5023 10.758 14.9494C10.7912 15.4058 10.758 15.9905 10.184 15.9905C9.74296 16.0249 9.19618 15.9905 9.19618 15.3996C9.18108 15.112 9.22337 14.8149 9.16899 14.5304C9.06629 14.1209 8.46816 14.2491 8.49837 14.6555C8.48024 15.1213 8.64035 15.8467 8.05732 15.9811C6.78554 16.0999 7.82169 14.3397 7.02419 14.2741C6.4321 14.2584 6.67981 15.0369 6.62543 15.4215C6.61033 16.1812 5.49261 16.1718 5.48959 15.4058C5.48657 15.2495 5.48959 15.0932 5.48959 14.9369C5.48959 14.8275 5.49563 14.718 5.48657 14.6086C5.48355 14.321 5.12105 14.1615 4.91865 14.3585C4.535 14.8149 5.18751 15.8998 4.24198 15.9905C3.77677 16.0249 3.22697 15.9967 3.22999 15.3715C3.22999 14.7899 3.22697 14.2084 3.23301 13.6238C3.23301 13.5144 3.2028 13.4456 3.11822 13.3768C2.17571 12.6421 1.23924 11.9011 0.296737 11.1664C0.09434 11.007 0.00371427 10.8131 0.00673512 10.5536C0.0369437 9.1311 -0.0627446 7.70233 0.0762148 6.28293C0.465905 2.90326 3.24207 0.267684 6.50762 0.0144438ZM4.14531 10.6974C6.70398 10.5661 6.48043 6.58932 3.955 6.72688C1.48696 6.88633 1.638 10.7819 4.14531 10.6974ZM11.8273 8.73717C11.8334 6.161 8.08149 6.04532 7.98482 8.67152C7.94253 11.2602 11.7518 11.4009 11.8273 8.73717ZM6.98492 12.1731C6.98492 12.17 6.98492 12.1669 6.98492 12.1637C8.51347 12.3138 7.6495 11.4196 7.2719 10.6287C7.13294 10.3723 6.80366 10.4223 6.68887 10.6631C6.31126 11.4478 5.49261 12.295 6.98492 12.1731Z" fill="#8B939E"/>
</svg>
