<svg width="20" height="20" viewBox="0 0 20 20" fill="none" xmlns="http://www.w3.org/2000/svg">
<path d="M0.343998 13.271L2.344 16.731C2.47678 16.9605 2.69527 17.1279 2.95143 17.1963C3.20758 17.2648 3.48044 17.2287 3.71 17.096L5.106 16.29C5.686 16.747 6.327 17.122 7.001 17.402V19C7.001 19.2652 7.10635 19.5196 7.29389 19.7071C7.48143 19.8946 7.73578 20 8.001 20H12.001C12.2662 20 12.5206 19.8946 12.7081 19.7071C12.8956 19.5196 13.001 19.2652 13.001 19V17.402C13.6803 17.1192 14.3178 16.7451 14.896 16.29L16.292 17.096C16.769 17.371 17.383 17.206 17.658 16.731L19.658 13.271C19.7896 13.0412 19.8251 12.7687 19.7567 12.5129C19.6884 12.257 19.5217 12.0385 19.293 11.905L17.921 11.112C18.0282 10.3745 18.0275 9.62531 17.919 8.888L19.291 8.095C19.767 7.82 19.932 7.205 19.656 6.729L17.656 3.269C17.5232 3.0395 17.3047 2.87212 17.0486 2.80367C16.7924 2.73523 16.5196 2.77131 16.29 2.904L14.894 3.71C14.3165 3.25438 13.6793 2.88022 13 2.598V1C13 0.734783 12.8946 0.480429 12.7071 0.292893C12.5196 0.105357 12.2652 0 12 0H8C7.73478 0 7.48043 0.105357 7.29289 0.292893C7.10535 0.480429 7 0.734783 7 1V2.598C6.32072 2.88081 5.68318 3.25492 5.105 3.71L3.71 2.904C3.59637 2.83817 3.47087 2.79539 3.34069 2.7781C3.2105 2.76082 3.07819 2.76937 2.95132 2.80327C2.82445 2.83717 2.7055 2.89576 2.60129 2.97567C2.49708 3.05559 2.40965 3.15526 2.344 3.269L0.343998 6.729C0.212386 6.9588 0.176897 7.2313 0.245261 7.48715C0.313624 7.74299 0.480302 7.96147 0.708998 8.095L2.081 8.888C1.97313 9.62541 1.97313 10.3746 2.081 11.112L0.708998 11.905C0.232998 12.18 0.0679979 12.795 0.343998 13.271V13.271ZM10 6C12.206 6 14 7.794 14 10C14 12.206 12.206 14 10 14C7.794 14 6 12.206 6 10C6 7.794 7.794 6 10 6Z" fill="#8B939E"/>
</svg>
