<svg width="24" height="24" viewBox="0 0 24 24" fill="none" xmlns="http://www.w3.org/2000/svg">
<path d="M19.554 9.488C19.675 10.051 19.66 10.734 19.514 11.539C18.932 14.517 17.037 16.005 13.831 16.005H13.389C13.2257 16.004 13.0676 16.0631 12.945 16.171C12.8179 16.2811 12.7334 16.4321 12.706 16.598L12.665 16.787L12.112 20.266L12.091 20.417C12.0625 20.584 11.9748 20.7352 11.844 20.843C11.7206 20.9516 11.5614 21.0107 11.397 21.009H8.874C8.81085 21.0123 8.74783 21.0004 8.69023 20.9743C8.63263 20.9482 8.58214 20.9087 8.543 20.859C8.50325 20.8083 8.47468 20.7497 8.45917 20.6871C8.44366 20.6246 8.44156 20.5594 8.453 20.496C8.514 20.123 8.601 19.558 8.72 18.807C8.837 18.057 8.926 17.493 8.987 17.118C9.048 16.743 9.137 16.18 9.259 15.433C9.38 14.685 9.471 14.123 9.53 13.748C9.563 13.5 9.709 13.377 9.963 13.377H11.279C12.172 13.39 12.961 13.32 13.654 13.166C14.826 12.904 15.788 12.422 16.54 11.717C17.225 11.08 17.743 10.255 18.1 9.244C18.262 8.774 18.377 8.327 18.452 7.906C18.458 7.865 18.466 7.84 18.477 7.832C18.485 7.821 18.499 7.818 18.512 7.821C18.5337 7.83069 18.5545 7.84241 18.574 7.856C19.098 8.254 19.428 8.797 19.554 9.488ZM17.826 6.652C17.826 7.369 17.672 8.16 17.361 9.026C16.824 10.588 15.814 11.644 14.324 12.194C13.566 12.463 12.722 12.602 11.789 12.619C11.789 12.625 11.488 12.626 10.885 12.626L9.982 12.619C9.31 12.619 8.915 12.939 8.795 13.583C8.782 13.636 8.497 15.413 7.94 18.912C7.932 18.978 7.892 19.014 7.819 19.014H4.854C4.78413 19.0155 4.71479 19.0014 4.65099 18.9729C4.58719 18.9444 4.5305 18.9021 4.485 18.849C4.4378 18.7968 4.40295 18.7346 4.38304 18.6671C4.36313 18.5996 4.35868 18.5285 4.37 18.459L6.702 3.664C6.73187 3.47467 6.83006 3.30285 6.978 3.181C7.12225 3.05684 7.30669 2.98932 7.497 2.991H13.511C13.739 2.991 14.066 3.035 14.49 3.122C14.918 3.206 15.291 3.316 15.613 3.443C16.331 3.717 16.879 4.131 17.258 4.68C17.637 5.232 17.826 5.887 17.826 6.652Z" fill="#8B939E"/>
</svg>
