<svg width="20" height="19" viewBox="0 0 20 19" fill="none" xmlns="http://www.w3.org/2000/svg">
<path d="M0 6V10.001H1V16H0V19H16L19 19.001V19H20V16H19V10.001H20V6L10 0L0 6ZM4 16V10.001H6V16H4ZM9 16V10.001H11V16H9ZM16 16H14V10.001H16V16ZM12 6C11.9999 6.26271 11.9481 6.52283 11.8475 6.76552C11.7469 7.00821 11.5995 7.2287 11.4137 7.41442C11.2279 7.60014 11.0073 7.74744 10.7646 7.84791C10.5219 7.94839 10.2617 8.00007 9.999 8C9.73629 7.99994 9.47616 7.94813 9.23348 7.84753C8.99079 7.74694 8.7703 7.59952 8.58458 7.41371C8.39886 7.2279 8.25156 7.00733 8.15109 6.7646C8.05061 6.52186 7.99893 6.26171 7.999 5.999C7.99913 5.46844 8.21002 4.95965 8.58528 4.58458C8.96054 4.20951 9.46943 3.99887 10 3.999C10.5306 3.99913 11.0393 4.21003 11.4144 4.58529C11.7895 4.96055 12.0001 5.46944 12 6V6Z" fill="#8B939E"/>
</svg>
